<svg width="122" height="122" viewBox="0 0 122 122" fill="none" xmlns="http://www.w3.org/2000/svg">
    <circle cx="61" cy="61" r="59" fill="url(#paint0_linear_202_1203)" fill-opacity="0.2" stroke="url(#paint1_linear_202_1203)" stroke-width="4"/>
    <path d="M83.8973 94.9548L80.499 88.0162L73.5548 84.6207L80.499 81.2991L83.8973 74.2867L87.2216 81.2991L94.2397 84.6207L87.2216 88.0162L83.8973 94.9548ZM60.1096 96.4311H67.6448V90.5259H60.1096C59.2723 90.5259 58.3612 90.3655 57.3762 90.0447C56.3912 89.7258 55.6279 89.2957 55.0861 88.7544L37.7994 70.7435L39.2769 69.2673L55.8249 77.6821V39.7413C55.8249 39.2984 55.9598 38.9411 56.2297 38.6695C56.5016 38.3998 56.8591 38.265 57.3024 38.265C57.7456 38.265 58.1032 38.3998 58.375 38.6695C58.6449 38.9411 58.7798 39.2984 58.7798 39.7413V61H64.6898V32.9503C64.6898 32.5074 64.8248 32.1502 65.0947 31.8785C65.3665 31.6089 65.7241 31.474 66.1673 31.474C66.6106 31.474 66.9681 31.6089 67.24 31.8785C67.5099 32.1502 67.6448 32.5074 67.6448 32.9503V61H73.5548V35.6077C73.5548 35.214 73.6907 34.8695 73.9626 34.5743C74.2325 34.279 74.589 34.1314 75.0323 34.1314C75.4755 34.1314 75.8331 34.279 76.1049 34.5743C76.3748 34.8695 76.5098 35.214 76.5098 35.6077V61H82.4198V43.7273C82.4198 43.2844 82.5557 42.9272 82.8275 42.6555C83.0974 42.3858 83.454 42.251 83.8973 42.251C84.3405 42.251 84.6981 42.3858 84.9699 42.6555C85.2398 42.9272 85.3747 43.2844 85.3747 43.7273V68.3815H91.2847V43.7273C91.2847 41.6605 90.5706 39.9135 89.1424 38.4865C87.7141 37.0594 85.9657 36.3458 83.8973 36.3458H83.1585C82.9123 36.3458 82.666 36.395 82.4198 36.4934V35.6077C82.4198 33.5901 81.7056 31.8549 80.2774 30.4022C78.8491 28.9515 77.1008 28.2262 75.0323 28.2262C74.4905 28.2262 73.998 28.2626 73.5548 28.3354C73.1115 28.4102 72.6683 28.5707 72.225 28.8167C71.5355 27.8325 70.6737 27.0451 69.6394 26.4546C68.6052 25.8641 67.4478 25.5688 66.1673 25.5688C64.4436 25.5688 62.7809 26.1102 61.1793 27.1928C59.5797 28.2754 58.7798 30.0469 58.7798 32.5074C58.5336 32.409 58.2873 32.3598 58.0411 32.3598H57.3024C55.2339 32.3598 53.4855 33.0734 52.0572 34.5004C50.629 35.9275 49.9149 37.6745 49.9149 39.7413V68.0862L42.0842 64.1002C40.9514 63.5589 39.7822 63.3621 38.5766 63.5097C37.369 63.6573 36.2727 64.1494 35.2877 64.986L29.23 70.3007L50.8014 92.7404C51.9341 93.9214 53.3624 94.8318 55.0861 95.4715C56.8099 96.1113 58.4843 96.4311 60.1096 96.4311ZM38.0949 50.6659L34.9922 44.1702L28.4912 41.07L34.9922 37.9697L38.0949 31.474L41.1977 37.9697L47.6986 41.3652L41.1977 44.1702L38.0949 50.6659Z" fill="url(#paint2_linear_202_1203)" fill-opacity="0.7"/>
    <defs>
        <linearGradient id="paint0_linear_202_1203" x1="20.8204" y1="8.76647" x2="105.928" y2="109.216" gradientUnits="userSpaceOnUse">
            <stop stop-color="white"/>
            <stop offset="1" stop-color="white" stop-opacity="0"/>
        </linearGradient>
        <linearGradient id="paint1_linear_202_1203" x1="20.8166" y1="27.7645" x2="101.547" y2="102.643" gradientUnits="userSpaceOnUse">
            <stop stop-color="#CA32DB"/>
            <stop offset="1" stop-color="#4433C4"/>
        </linearGradient>
        <linearGradient id="paint2_linear_202_1203" x1="61.3671" y1="53.3287" x2="74.8834" y2="89.1245" gradientUnits="userSpaceOnUse">
            <stop stop-color="#CA32DB"/>
            <stop offset="1" stop-color="#4433C4"/>
        </linearGradient>
    </defs>
</svg>
