<svg width="122" height="122" viewBox="0 0 122 122" fill="none" xmlns="http://www.w3.org/2000/svg">
    <circle cx="61" cy="61" r="59" fill="url(#paint0_linear_202_1204)" fill-opacity="0.2" stroke="url(#paint1_linear_202_1204)" stroke-width="4"/>
    <path fill-rule="evenodd" clip-rule="evenodd" d="M70.8352 35.1031C67.8608 35.5007 64.7198 36.0762 61.2437 36.8165C57.7657 36.0781 54.6266 35.4988 51.6522 35.1031C54.407 36.1179 57.1996 37.3788 60.1607 38.7723C60.8234 39.0847 61.2437 39.7511 61.2437 40.482C61.2437 39.7511 61.6659 39.0847 62.3267 38.7742C65.2878 37.3788 68.0824 36.1179 70.8352 35.1012V35.1031ZM61.2437 84.4882C61.2437 85.8779 59.7934 86.7924 58.5268 86.2206C49.401 82.0894 41.7085 79.8629 31.3937 81.7448C30.1934 81.9645 29.0574 81.0651 29.0574 79.8458V35.9323C27.6942 36.2069 26.2818 36.5193 24.8107 36.8752C24.4014 36.9747 24.0374 37.209 23.7775 37.5404C23.5175 37.8718 23.3766 38.281 23.3774 38.7022V87.0556C23.3774 88.254 24.4812 89.1477 25.657 88.9243C37.4201 86.6807 45.3475 86.5235 56.181 88.1669C56.6562 89.1012 57.3807 89.8858 58.2742 90.4338C59.1677 90.9818 60.1955 91.2719 61.2437 91.2719C62.2919 91.2719 63.3197 90.9818 64.2132 90.4338C65.1068 89.8858 65.8312 89.1012 66.3064 88.1669C77.1381 86.5235 85.0692 86.6807 96.8304 88.9243C97.1067 88.9777 97.3913 88.9695 97.6641 88.9005C97.9369 88.8315 98.1911 88.7032 98.4087 88.5248C98.6263 88.3464 98.8019 88.1223 98.9231 87.8684C99.0444 87.6145 99.1081 87.3369 99.11 87.0556V38.7041C99.1113 38.2826 98.9706 37.8729 98.7105 37.5411C98.4505 37.2093 98.0864 36.9747 97.6767 36.8752C96.2673 36.5337 94.8515 36.2194 93.43 35.9323V79.8458C93.43 81.0651 92.2941 81.9645 91.0937 81.7448C80.7789 79.8629 73.0864 82.0894 63.9625 86.2206C62.694 86.7924 61.2437 85.8798 61.2437 84.4882Z" fill="url(#paint2_linear_202_1204)" fill-opacity="0.7"/>
    <path fill-rule="evenodd" clip-rule="evenodd" d="M30.9502 35.4855V79.8477L30.9635 79.861C30.976 79.8712 30.9906 79.8786 31.0063 79.8825C31.0221 79.8865 31.0384 79.8869 31.0543 79.8837C41.903 77.9014 50.0121 80.2889 59.3064 84.4939C59.3111 84.4966 59.3162 84.4985 59.3215 84.4996C59.3289 84.4987 59.3379 84.4961 59.3442 84.492C59.3462 84.4909 59.3481 84.4896 59.3499 84.4883V40.4839C49.2832 35.743 41.6626 32.8065 30.9502 35.4855ZM29.9733 31.8276C42.0791 28.7813 50.7618 32.2555 60.9668 37.0608C61.6156 37.3666 62.1641 37.8507 62.5482 38.4564C62.9324 39.0622 63.1364 39.7647 63.1365 40.482V84.4901C63.1365 87.2885 60.236 89.072 57.7463 87.9473C48.7909 83.8937 41.513 81.8244 31.7321 83.6098C29.4356 84.0263 27.1636 82.3128 27.1636 79.8458V35.4609C27.1636 33.7853 28.2787 32.2555 29.9733 31.8276Z" fill="url(#paint3_linear_202_1204)" fill-opacity="0.7"/>
    <path fill-rule="evenodd" clip-rule="evenodd" d="M91.5368 35.4855V79.8477C91.5222 79.8642 91.5031 79.876 91.4819 79.8818C91.4663 79.8853 91.4502 79.8853 91.4346 79.8818C80.5821 77.9014 72.475 80.2889 63.1807 84.4958C63.1758 84.4978 63.1707 84.4991 63.1655 84.4996C63.1581 84.4987 63.1491 84.4961 63.1428 84.492L63.1371 84.4883V40.482C73.2039 35.7411 80.8245 32.8065 91.5368 35.4855ZM92.5138 31.8276C80.4079 28.7813 71.7252 32.2555 61.5202 37.0608C60.8714 37.3671 60.323 37.8516 59.9389 38.4576C59.5547 39.0636 59.3507 39.7663 59.3505 40.4839V84.4901C59.3505 87.2885 62.2511 89.072 64.7408 87.9473C73.6961 83.8937 80.9759 81.8244 90.7549 83.6098C93.0515 84.0263 95.3235 82.3128 95.3235 79.8458V35.4609C95.3235 33.7853 94.2083 32.2555 92.5138 31.8276ZM36.6497 70.4474C43.5981 70.3755 47.4738 71.076 54.8482 74.0883L56.2796 70.5819C48.4659 67.3916 44.0904 66.5832 36.6118 66.6608L36.6497 70.4474ZM36.6497 62.8742C43.5981 62.8022 47.4738 63.5028 54.8482 66.515L56.2796 63.0086C48.4659 59.8184 44.0904 59.0099 36.6118 59.0876L36.6497 62.8742ZM36.6497 55.3009C43.5981 55.229 47.4738 55.9295 54.8482 58.9418L56.2796 55.4354C48.4659 52.2451 44.0904 51.4367 36.6118 51.5143L36.6497 55.3009ZM41.364 40.1488V45.8287H37.5774V40.1488H41.364ZM47.9906 42.0421V47.722H44.204V42.0421H47.9906ZM54.6172 43.9354V49.6153H50.8306V43.9354H54.6172Z" fill="url(#paint4_linear_202_1204)" fill-opacity="0.7"/>
    <path fill-rule="evenodd" clip-rule="evenodd" d="M85.8374 70.4475C78.8889 70.3755 75.0133 71.076 67.6389 74.0883L66.2075 70.5819C74.0212 67.3917 78.3967 66.5832 85.8753 66.6608L85.8374 70.4475ZM85.8374 62.8742C78.8889 62.8023 75.0133 63.5028 67.6389 66.5151L66.2075 63.0086C74.0212 59.8184 78.3967 59.01 85.8753 59.0876L85.8374 62.8742ZM85.8374 55.301C78.8889 55.229 75.0133 55.9295 67.6389 58.9418L66.2075 55.4354C74.0212 52.2451 78.3967 51.4367 85.8753 51.5143L85.8374 55.301ZM81.123 40.1488V45.8287H84.9097V40.1488H81.123ZM74.4964 42.0421V47.722H78.2831V42.0421H74.4964ZM67.8698 43.9354V49.6153H71.6565V43.9354H67.8698Z" fill="url(#paint5_linear_202_1204)" fill-opacity="0.7"/>
    <defs>
        <linearGradient id="paint0_linear_202_1204" x1="20.8204" y1="8.76647" x2="105.928" y2="109.216" gradientUnits="userSpaceOnUse">
            <stop stop-color="white"/>
            <stop offset="1" stop-color="white" stop-opacity="0"/>
        </linearGradient>
        <linearGradient id="paint1_linear_202_1204" x1="20.8166" y1="27.7645" x2="101.547" y2="102.643" gradientUnits="userSpaceOnUse">
            <stop stop-color="#CA32DB"/>
            <stop offset="1" stop-color="#4433C4"/>
        </linearGradient>
        <linearGradient id="paint2_linear_202_1204" x1="56.6204" y1="49.3212" x2="80.8724" y2="81.931" gradientUnits="userSpaceOnUse">
            <stop stop-color="#CA32DB"/>
            <stop offset="1" stop-color="#4433C4"/>
        </linearGradient>
        <linearGradient id="paint3_linear_202_1204" x1="42.954" y1="45.266" x2="66.2615" y2="59.7815" gradientUnits="userSpaceOnUse">
            <stop stop-color="#CA32DB"/>
            <stop offset="1" stop-color="#4433C4"/>
        </linearGradient>
        <linearGradient id="paint4_linear_202_1204" x1="62.3834" y1="45.266" x2="88.3501" y2="71.6597" gradientUnits="userSpaceOnUse">
            <stop stop-color="#CA32DB"/>
            <stop offset="1" stop-color="#4433C4"/>
        </linearGradient>
        <linearGradient id="paint5_linear_202_1204" x1="74.8407" y1="48.7408" x2="88.0982" y2="56.4027" gradientUnits="userSpaceOnUse">
            <stop stop-color="#CA32DB"/>
            <stop offset="1" stop-color="#4433C4"/>
        </linearGradient>
    </defs>
</svg>
