<svg width="122" height="106" viewBox="0 0 122 106" fill="none" xmlns="http://www.w3.org/2000/svg">
<path d="M9.0591 100V92.634L9.4071 93.591L0.881104 79.7H2.5051L10.2481 92.315H9.4361L17.1791 79.7H18.7161L10.1901 93.591L10.5381 92.634V100H9.0591Z" fill="white"/>
<path d="M26.1236 100.116C24.6736 100.116 23.3782 99.7873 22.2376 99.13C21.1162 98.4727 20.2172 97.564 19.5406 96.404C18.8832 95.244 18.5546 93.9197 18.5546 92.431C18.5546 90.923 18.8832 89.5987 19.5406 88.458C20.2172 87.298 21.1162 86.3893 22.2376 85.732C23.3782 85.0747 24.6736 84.746 26.1236 84.746C27.5736 84.746 28.8689 85.0747 30.0096 85.732C31.1502 86.3893 32.0492 87.298 32.7066 88.458C33.3639 89.5987 33.6926 90.923 33.6926 92.431C33.6926 93.9197 33.3639 95.244 32.7066 96.404C32.0492 97.564 31.1502 98.4727 30.0096 99.13C28.8689 99.7873 27.5736 100.116 26.1236 100.116ZM26.1236 98.811C27.2836 98.811 28.3276 98.55 29.2556 98.028C30.1836 97.4867 30.9086 96.7327 31.4306 95.766C31.9526 94.7993 32.2136 93.6877 32.2136 92.431C32.2136 91.155 31.9526 90.0433 31.4306 89.096C30.9086 88.1293 30.1836 87.385 29.2556 86.863C28.3276 86.3217 27.2836 86.051 26.1236 86.051C24.9636 86.051 23.9196 86.3217 22.9916 86.863C22.0829 87.385 21.3579 88.1293 20.8166 89.096C20.2946 90.0433 20.0336 91.155 20.0336 92.431C20.0336 93.6877 20.2946 94.7993 20.8166 95.766C21.3579 96.7327 22.0829 97.4867 22.9916 98.028C23.9196 98.55 24.9636 98.811 26.1236 98.811Z" fill="white"/>
<path d="M44.484 105.742C43.1113 105.742 41.8063 105.529 40.569 105.104C39.3316 104.679 38.3263 104.089 37.553 103.335L38.336 102.233C39.09 102.929 39.989 103.47 41.033 103.857C42.0963 104.244 43.237 104.437 44.455 104.437C46.485 104.437 47.9736 103.963 48.921 103.016C49.8876 102.069 50.371 100.58 50.371 98.55V94.345L50.661 92.083L50.429 89.821V84.862H51.821V98.376C51.821 100.909 51.2023 102.765 49.965 103.944C48.747 105.143 46.92 105.742 44.484 105.742ZM44.078 99.449C42.6473 99.449 41.3616 99.1397 40.221 98.521C39.0996 97.883 38.2006 97.013 37.524 95.911C36.8666 94.7897 36.538 93.5137 36.538 92.083C36.538 90.633 36.8666 89.357 37.524 88.255C38.2006 87.153 39.0996 86.2927 40.221 85.674C41.3616 85.0553 42.6473 84.746 44.078 84.746C45.4506 84.746 46.6783 85.0457 47.761 85.645C48.863 86.225 49.733 87.066 50.371 88.168C51.009 89.2507 51.328 90.5557 51.328 92.083C51.328 93.591 51.009 94.896 50.371 95.998C49.733 97.1 48.863 97.9507 47.761 98.55C46.6783 99.1493 45.4506 99.449 44.078 99.449ZM44.194 98.144C45.412 98.144 46.485 97.8927 47.413 97.39C48.341 96.868 49.066 96.1527 49.588 95.244C50.1293 94.316 50.4 93.2623 50.4 92.083C50.4 90.8843 50.1293 89.8307 49.588 88.922C49.066 88.0133 48.341 87.3077 47.413 86.805C46.485 86.3023 45.412 86.051 44.194 86.051C43.0146 86.051 41.9513 86.3023 41.004 86.805C40.076 87.3077 39.3413 88.0133 38.8 88.922C38.278 89.8307 38.017 90.8843 38.017 92.083C38.017 93.2623 38.278 94.316 38.8 95.244C39.3413 96.1527 40.076 96.868 41.004 97.39C41.9513 97.8927 43.0146 98.144 44.194 98.144Z" fill="white"/>
<path d="M67.4995 100V96.549L67.4415 96.027V90.343C67.4415 88.9317 67.0549 87.8587 66.2815 87.124C65.5275 86.3893 64.4159 86.022 62.9465 86.022C61.9025 86.022 60.9262 86.2057 60.0175 86.573C59.1282 86.921 58.3645 87.3753 57.7265 87.936L57.0015 86.892C57.7555 86.2153 58.6642 85.6933 59.7275 85.326C60.7909 84.9393 61.9025 84.746 63.0625 84.746C64.9379 84.746 66.3782 85.2197 67.3835 86.167C68.3889 87.1143 68.8915 88.5257 68.8915 90.401V100H67.4995ZM62.0475 100.116C60.9262 100.116 59.9499 99.942 59.1185 99.594C58.3065 99.2267 57.6782 98.7143 57.2335 98.057C56.8082 97.3997 56.5955 96.6457 56.5955 95.795C56.5955 95.0217 56.7695 94.3257 57.1175 93.707C57.4849 93.069 58.0842 92.5567 58.9155 92.17C59.7469 91.764 60.8585 91.561 62.2505 91.561H67.8185V92.692H62.2795C60.7135 92.692 59.6115 92.982 58.9735 93.562C58.3549 94.142 58.0455 94.867 58.0455 95.737C58.0455 96.7037 58.4129 97.477 59.1475 98.057C59.8822 98.637 60.9165 98.927 62.2505 98.927C63.5265 98.927 64.5995 98.637 65.4695 98.057C66.3589 97.477 67.0162 96.636 67.4415 95.534L67.8475 96.52C67.4415 97.622 66.7455 98.5017 65.7595 99.159C64.7929 99.797 63.5555 100.116 62.0475 100.116Z" fill="white"/>
<path d="M80.6658 100.145C79.1578 100.145 77.7271 99.8937 76.3738 99.391C75.0398 98.869 74.0054 98.202 73.2708 97.39L73.9378 96.288C74.6338 97.0033 75.5811 97.6123 76.7798 98.115C77.9978 98.5983 79.2834 98.84 80.6368 98.84C81.9901 98.84 83.0921 98.666 83.9428 98.318C84.8128 97.9507 85.4508 97.4673 85.8568 96.868C86.2821 96.2687 86.4948 95.6017 86.4948 94.867C86.4948 93.997 86.2628 93.301 85.7988 92.779C85.3348 92.257 84.7258 91.8413 83.9718 91.532C83.2178 91.2227 82.3961 90.9617 81.5068 90.749C80.6174 90.5363 79.7184 90.314 78.8098 90.082C77.9011 89.8307 77.0698 89.5117 76.3158 89.125C75.5618 88.7383 74.9528 88.2163 74.4888 87.559C74.0441 86.8823 73.8218 86.0123 73.8218 84.949C73.8218 83.9823 74.0731 83.093 74.5758 82.281C75.0784 81.469 75.8614 80.8117 76.9248 80.309C77.9881 79.8063 79.3511 79.555 81.0138 79.555C82.1351 79.555 83.2371 79.7193 84.3198 80.048C85.4218 80.3767 86.3594 80.8213 87.1328 81.382L86.5818 82.571C85.7311 81.991 84.8128 81.5657 83.8268 81.295C82.8601 81.005 81.9224 80.86 81.0138 80.86C79.7184 80.86 78.6454 81.0437 77.7948 81.411C76.9441 81.7783 76.3158 82.2713 75.9098 82.89C75.5038 83.4893 75.3008 84.166 75.3008 84.92C75.3008 85.79 75.5231 86.486 75.9678 87.008C76.4318 87.53 77.0408 87.9457 77.7948 88.255C78.5488 88.5643 79.3801 88.8253 80.2888 89.038C81.1974 89.2507 82.0964 89.4827 82.9858 89.734C83.8751 89.966 84.6968 90.2753 85.4508 90.662C86.2048 91.0487 86.8138 91.5707 87.2778 92.228C87.7418 92.8853 87.9738 93.736 87.9738 94.78C87.9738 95.7273 87.7128 96.6167 87.1908 97.448C86.6688 98.26 85.8664 98.9173 84.7838 99.42C83.7204 99.9033 82.3478 100.145 80.6658 100.145Z" fill="white"/>
<path d="M91.9064 105.742C91.2104 105.742 90.5531 105.626 89.9344 105.394C89.3351 105.162 88.8228 104.824 88.3974 104.379L89.1224 103.277C89.5091 103.683 89.9248 103.983 90.3694 104.176C90.8334 104.369 91.3554 104.466 91.9354 104.466C92.6314 104.466 93.2404 104.273 93.7624 103.886C94.3038 103.499 94.8064 102.794 95.2704 101.769L96.3144 99.449L96.5174 99.188L102.926 84.862H104.405L96.6334 102.059C96.2274 102.987 95.7828 103.712 95.2994 104.234C94.8354 104.775 94.3231 105.162 93.7624 105.394C93.2018 105.626 92.5831 105.742 91.9064 105.742ZM96.2854 100.377L89.2674 84.862H90.8044L97.1844 99.101L96.2854 100.377Z" fill="white"/>
<path d="M114.971 84.746C116.208 84.746 117.281 84.9877 118.19 85.471C119.118 85.935 119.833 86.6503 120.336 87.617C120.858 88.5643 121.119 89.7437 121.119 91.155V100H119.669V91.271C119.669 89.5697 119.234 88.2743 118.364 87.385C117.513 86.4957 116.314 86.051 114.768 86.051C113.588 86.051 112.564 86.2927 111.694 86.776C110.824 87.2593 110.157 87.936 109.693 88.806C109.248 89.676 109.026 90.72 109.026 91.938V100H107.576V84.862H108.968V89.067L108.765 88.603C109.229 87.4043 109.992 86.4667 111.056 85.79C112.119 85.094 113.424 84.746 114.971 84.746Z" fill="white"/>
<path d="M102.728 40.0893C102.724 40.3204 102.717 40.551 102.709 40.7805H23.7635C23.7453 40.2911 23.7361 39.799 23.7361 39.3049C23.7361 39.0806 23.7379 38.8574 23.7416 38.6341H102.731L102.734 38.9124C102.736 39.0429 102.736 39.1739 102.736 39.3049C102.736 39.5669 102.733 39.8284 102.728 40.0893Z" fill="#FFDA6D"/>
<path d="M24.1197 44.8049C24.0323 44.1834 23.9594 43.5572 23.9015 42.9268H102.571C102.552 43.1359 102.531 43.3445 102.508 43.5525C102.463 43.9717 102.411 44.3893 102.352 44.8049H24.1197Z" fill="#FFDA6D"/>
<path d="M24.5371 47.2195C24.6482 47.7603 24.7704 48.2969 24.9036 48.8293H101.569C101.702 48.2969 101.824 47.7603 101.935 47.2195H24.5371Z" fill="#FFDA6D"/>
<path d="M26.1456 52.8537C25.9818 52.4103 25.8262 51.9628 25.6782 51.5122H100.794C100.646 51.9628 100.49 52.4103 100.327 52.8537H26.1456Z" fill="#FFDA6D"/>
<path d="M27.3747 55.8049C27.5427 56.1654 27.7157 56.5233 27.8942 56.8781H98.578C98.7565 56.5233 98.9295 56.1654 99.0975 55.8049H27.3747Z" fill="#FFDA6D"/>
<path d="M30.2284 60.9024C30.0523 60.6362 29.8793 60.368 29.7094 60.0976H96.7628C96.5929 60.368 96.4199 60.6362 96.2438 60.9024H30.2284Z" fill="#FFDA6D"/>
<path d="M33.0287 64.6313L33.1435 64.7665C33.2664 64.9106 33.3905 65.0531 33.5155 65.1951H92.9567C93.1902 64.93 93.4201 64.6617 93.6465 64.3902H32.8257C32.8931 64.4709 32.9607 64.5516 33.0287 64.6313Z" fill="#FFDA6D"/>
<path d="M37.6133 69.2195C37.2015 68.87 36.7971 68.5121 36.4003 68.1463H90.0719C89.6751 68.5121 89.2707 68.87 88.8589 69.2195H37.6133Z" fill="#FFDA6D"/>
<path d="M42.4071 72.7073C42.7022 72.8902 43 73.0689 43.3005 73.2439H83.1717C83.4722 73.0689 83.77 72.8902 84.0651 72.7073H42.4071Z" fill="#FFDA6D"/>
<path d="M52.0114 77C51.7186 76.9141 51.4274 76.8245 51.1375 76.7317H75.3347C75.0448 76.8245 74.7536 76.9141 74.4608 77H52.0114Z" fill="#FFDA6D"/>
<path d="M23.8359 36.4878C23.8872 35.7668 23.9583 35.051 24.0481 34.3415H102.424C102.463 34.6491 102.498 34.9577 102.53 35.2674C102.572 35.6724 102.607 36.0791 102.636 36.4878H23.8359Z" fill="#FFDA6D"/>
<path d="M24.535 31.4007C24.4626 31.7534 24.3949 32.1076 24.3322 32.4634H102.14C102.013 31.7408 101.865 31.0255 101.699 30.3171H24.7735C24.689 30.6765 24.6095 31.0376 24.535 31.4007Z" fill="#FFDA6D"/>
<path d="M25.2649 28.439C25.5268 27.5309 25.821 26.6359 26.1456 25.7561H100.327C100.651 26.6359 100.945 27.5309 101.207 28.439H25.2649Z" fill="#FFDA6D"/>
<path d="M27.1277 23.3457C26.9698 23.6994 26.8168 24.0557 26.6691 24.4146H99.8031C99.4277 23.5029 99.0188 22.6079 98.578 21.7317H27.8942C27.761 21.9963 27.6307 22.2631 27.5035 22.5313C27.3752 22.8012 27.2499 23.0726 27.1277 23.3457Z" fill="#FFDA6D"/>
<path d="M28.6022 20.3902C28.736 20.1482 28.8724 19.9076 29.0114 19.6682C29.2131 19.3207 29.4198 18.977 29.6318 18.6364C29.7571 18.4352 29.8843 18.235 30.013 18.0364C30.2018 17.745 30.394 17.4563 30.5902 17.1707H95.882C96.5945 18.2093 97.2583 19.2835 97.87 20.3902H28.6022Z" fill="#FFDA6D"/>
<path d="M33.7538 13.1463C32.9073 14.0901 32.1058 15.0752 31.353 16.0976H95.1192C94.3664 15.0752 93.5649 14.0901 92.7184 13.1463H33.7538Z" fill="#FFDA6D"/>
<path d="M34.7525 12.0732C35.7573 11.033 36.8192 10.0474 37.933 9.12195H88.5392C89.653 10.0474 90.7149 11.033 91.7197 12.0732H34.7525Z" fill="#FFDA6D"/>
<path d="M63.2361 0C72.4007 0 80.8365 3.1058 87.5381 8.31707H38.9341C45.6357 3.1058 54.0715 0 63.2361 0Z" fill="#FFDA6D"/>
</svg>
