<svg width="122" height="122" viewBox="0 0 122 122" fill="none" xmlns="http://www.w3.org/2000/svg">
    <g filter="url(#filter0_b_202_1198)">
        <circle cx="61" cy="61" r="61" fill="url(#paint0_linear_202_1198)" fill-opacity="0.2"/>
        <circle cx="61" cy="61" r="59" stroke="url(#paint1_linear_202_1198)" stroke-width="4"/>
    </g>
    <path d="M43.2667 27.7885C46.4303 25.3926 50.2924 24.1003 54.2609 24.1098C55.6315 24.0791 56.9876 24.3946 58.2039 25.027C59.4202 25.6595 60.4573 26.5886 61.2193 27.7282C61.9813 26.5886 63.0184 25.6595 64.2347 25.027C65.4509 24.3946 66.8071 24.0791 68.1777 24.1098C72.1462 24.1003 76.0083 25.3926 79.1719 27.7885C81.6073 29.6812 83.4861 32.3022 84.1495 35.4706C85.671 35.5865 87.0627 36.2174 88.2317 37.1684C90.0038 38.6065 91.2934 40.7636 92.1052 43.0459C93.3763 46.5947 93.7196 51.1176 92.4021 54.9679C92.7361 55.1257 93.0655 55.3112 93.3856 55.5246C94.6613 56.3735 95.6308 57.5889 96.3452 59.0224C97.7508 61.8289 98.3307 65.7442 98.3307 70.4991C98.3307 75.7921 96.3127 79.3455 93.7521 81.5397C92.336 82.7538 90.6649 83.6338 88.8626 84.1143C88.3987 86.7028 87.0998 89.6996 85.0634 92.2417C82.4192 95.5585 78.3184 98.3326 72.8166 98.3326C68.456 98.3326 64.9861 95.9203 62.7316 93.5545C62.1926 92.9896 61.6876 92.3932 61.2193 91.7685C60.751 92.3933 60.2461 92.9897 59.707 93.5545C57.4525 95.9203 53.9872 98.3326 49.622 98.3326C44.1202 98.3326 40.0241 95.5585 37.3752 92.2417C35.4722 89.8784 34.1687 87.0901 33.5759 84.1143C31.7736 83.6338 30.1026 82.7538 28.6865 81.5397C26.1258 79.3455 24.1079 75.7874 24.1079 70.4991C24.1079 65.7442 24.6924 61.8243 26.0934 59.0224C26.7573 57.6166 27.7777 56.4091 29.053 55.52C29.3663 55.3126 29.6951 55.1296 30.0365 54.9726C28.719 51.113 29.0623 46.5947 30.3333 43.0459C31.1452 40.7636 32.4348 38.6065 34.2068 37.1684C35.3759 36.2174 36.7675 35.5912 38.2891 35.4706C38.9571 32.3022 40.8312 29.6812 43.2667 27.7885ZM58.8998 35.7071V35.6608L58.8905 35.4288C58.8223 34.2195 58.5817 33.026 58.1762 31.8847C57.8874 31.023 57.3958 30.2434 56.7427 29.6116C56.0575 29.0149 55.1685 28.7058 54.2609 28.7488C51.3242 28.7387 48.4643 29.6866 46.115 31.4486C43.9625 33.1233 42.6636 35.3917 42.6636 38.0266C42.6633 38.3939 42.5758 38.7559 42.4083 39.0828C42.2407 39.4097 41.9979 39.6921 41.6999 39.9068C41.4018 40.1215 41.057 40.2624 40.6939 40.3178C40.3308 40.3732 39.9597 40.3415 39.6112 40.2255C38.7391 39.9378 37.9597 40.1002 37.1294 40.7682C36.2201 41.5104 35.3341 42.8279 34.6986 44.6046C33.4043 48.2322 33.5388 52.6253 35.3155 55.2973C35.5693 55.6778 35.7049 56.1249 35.7052 56.5823H39.1844C41.9526 56.5823 44.6075 57.682 46.5649 59.6394C48.5223 61.5968 49.622 64.2517 49.622 67.0199V68.5739C51.1696 69.1211 52.4739 70.1977 53.3044 71.6135C54.135 73.0293 54.4383 74.6932 54.1607 76.311C53.8831 77.9288 53.0426 79.3964 51.7876 80.4544C50.5326 81.5124 48.944 82.0927 47.3025 82.0927C45.6611 82.0927 44.0725 81.5124 42.8175 80.4544C41.5625 79.3964 40.7219 77.9288 40.4443 76.311C40.1668 74.6932 40.4701 73.0293 41.3006 71.6135C42.1312 70.1977 43.4355 69.1211 44.9831 68.5739V67.0199C44.9831 63.819 42.3853 61.2212 39.1844 61.2212H31.0663C30.789 61.2208 30.514 61.1705 30.2545 61.0728L30.2406 61.1006C29.3221 62.933 28.7468 65.9761 28.7468 70.4991C28.7468 74.4839 30.2081 76.7291 31.7065 78.0141C33.3162 79.3965 35.1022 79.7769 35.7052 79.7769C36.3204 79.7769 36.9103 80.0213 37.3453 80.4563C37.7803 80.8912 38.0247 81.4812 38.0247 82.0964C38.0247 83.8035 38.9525 86.7863 40.9936 89.347C42.9837 91.8288 45.8459 93.6937 49.622 93.6937C52.2198 93.6937 54.5485 92.2417 56.3484 90.3536C57.2345 89.4259 57.9257 88.4656 58.3756 87.677C58.5805 87.3273 58.7558 86.9611 58.8998 86.5822V49.6239H53.8666C53.3194 51.1715 52.2428 52.4758 50.827 53.3064C49.4112 54.1369 47.7473 54.4402 46.1295 54.1626C44.5117 53.885 43.0441 53.0445 41.9861 51.7895C40.9281 50.5345 40.3478 48.9459 40.3478 47.3044C40.3478 45.663 40.9281 44.0744 41.9861 42.8194C43.0441 41.5644 44.5117 40.7238 46.1295 40.4463C47.7473 40.1687 49.4112 40.472 50.827 41.3025C52.2428 42.1331 53.3194 43.4374 53.8666 44.985H58.8998V35.7071ZM63.5387 82.0917V86.5776C63.6828 86.9564 63.8582 87.3226 64.0629 87.6723C64.5176 88.461 65.2041 89.4212 66.0855 90.349C67.8901 92.237 70.2234 93.689 72.8166 93.689C76.5927 93.689 79.4549 91.8242 81.445 89.3424C83.4861 86.7817 84.4139 83.7988 84.4139 82.0917C84.4139 81.4766 84.6583 80.8866 85.0933 80.4516C85.5282 80.0166 86.1182 79.7723 86.7334 79.7723C87.3364 79.7723 89.1224 79.3919 90.7321 78.0095C92.2305 76.7245 93.6917 74.4793 93.6917 70.4944C93.6917 65.9715 93.1119 62.933 92.198 61.096C91.8923 60.4119 91.4124 59.8201 90.8063 59.3796C90.284 59.0457 89.6723 58.879 89.0528 58.9018C88.6333 58.9015 88.2216 58.7875 87.8617 58.5719C87.5019 58.3562 87.2072 58.047 87.0092 57.6771C86.8112 57.3072 86.7172 56.8905 86.7372 56.4715C86.7573 56.0524 86.8906 55.6466 87.123 55.2973C88.9044 52.6253 89.0343 48.2322 87.74 44.6046C87.1045 42.8279 86.2184 41.5058 85.3092 40.7682C84.4788 40.1002 83.6995 39.9332 82.8274 40.2255C82.4789 40.3415 82.1078 40.3732 81.7447 40.3178C81.3815 40.2624 81.0368 40.1215 80.7387 39.9068C80.4407 39.6921 80.1979 39.4097 80.0303 39.0828C79.8628 38.7559 79.7753 38.3939 79.775 38.0266C79.775 35.3917 78.4761 33.1233 76.319 31.4486C73.9709 29.6875 71.1128 28.7397 68.1777 28.7488C67.2701 28.7058 66.381 29.0149 65.6959 29.6116C65.0408 30.2427 64.5475 31.0224 64.2578 31.8847C63.8161 33.0964 63.5733 34.3715 63.5387 35.6608V77.4574H67.0179C70.2188 77.4574 72.8166 74.8596 72.8166 71.6588V63.1464C71.269 62.5992 69.9647 61.5226 69.1341 60.1068C68.3036 58.6909 68.0003 57.0271 68.2779 55.4093C68.5555 53.7914 69.396 52.3238 70.651 51.2658C71.906 50.2078 73.4946 49.6276 75.1361 49.6276C76.7775 49.6276 78.3661 50.2078 79.6211 51.2658C80.8761 52.3238 81.7167 53.7914 81.9942 55.4093C82.2718 57.0271 81.9685 58.6909 81.138 60.1068C80.3074 61.5226 79.0031 62.5992 77.4555 63.1464V71.6588C77.4555 74.427 76.3558 77.0818 74.3984 79.0393C72.441 80.9967 69.7862 82.0964 67.0179 82.0964H63.5387V82.0917ZM44.9831 47.3044C44.9831 47.9196 45.2274 48.5096 45.6624 48.9446C46.0974 49.3795 46.6874 49.6239 47.3025 49.6239C47.9177 49.6239 48.5076 49.3795 48.9426 48.9446C49.3776 48.5096 49.622 47.9196 49.622 47.3044C49.622 46.6893 49.3776 46.0993 48.9426 45.6643C48.5076 45.2294 47.9177 44.985 47.3025 44.985C46.6874 44.985 46.0974 45.2294 45.6624 45.6643C45.2274 46.0993 44.9831 46.6893 44.9831 47.3044ZM75.1361 58.9018C75.7512 58.9018 76.3412 58.6574 76.7762 58.2224C77.2111 57.7874 77.4555 57.1975 77.4555 56.5823C77.4555 55.9671 77.2111 55.3772 76.7762 54.9422C76.3412 54.5072 75.7512 54.2628 75.1361 54.2628C74.5209 54.2628 73.9309 54.5072 73.4959 54.9422C73.061 55.3772 72.8166 55.9671 72.8166 56.5823C72.8166 57.1975 73.061 57.7874 73.4959 58.2224C73.9309 58.6574 74.5209 58.9018 75.1361 58.9018ZM47.3025 72.8185C46.6874 72.8185 46.0974 73.0629 45.6624 73.4979C45.2274 73.9329 44.9831 74.5228 44.9831 75.138C44.9831 75.7531 45.2274 76.3431 45.6624 76.7781C46.0974 77.2131 46.6874 77.4574 47.3025 77.4574C47.9177 77.4574 48.5076 77.2131 48.9426 76.7781C49.3776 76.3431 49.622 75.7531 49.622 75.138C49.622 74.5228 49.3776 73.9329 48.9426 73.4979C48.5076 73.0629 47.9177 72.8185 47.3025 72.8185Z" fill="url(#paint2_linear_202_1198)" fill-opacity="0.7"/>
    <defs>
        <filter id="filter0_b_202_1198" x="-40" y="-40" width="202" height="202" filterUnits="userSpaceOnUse" color-interpolation-filters="sRGB">
            <feFlood flood-opacity="0" result="BackgroundImageFix"/>
            <feGaussianBlur in="BackgroundImageFix" stdDeviation="20"/>
            <feComposite in2="SourceAlpha" operator="in" result="effect1_backgroundBlur_202_1198"/>
            <feBlend mode="normal" in="SourceGraphic" in2="effect1_backgroundBlur_202_1198" result="shape"/>
        </filter>
        <linearGradient id="paint0_linear_202_1198" x1="13.8802" y1="27.7605" x2="103.737" y2="104.102" gradientUnits="userSpaceOnUse">
            <stop stop-color="white"/>
            <stop offset="1" stop-color="white" stop-opacity="0"/>
        </linearGradient>
        <linearGradient id="paint1_linear_202_1198" x1="38.0116" y1="-0.00108337" x2="90.2111" y2="122.004" gradientUnits="userSpaceOnUse">
            <stop stop-color="#CA32DB"/>
            <stop offset="1" stop-color="#4433C4"/>
        </linearGradient>
        <linearGradient id="paint2_linear_202_1198" x1="47.2249" y1="24.11" x2="73.4043" y2="98.628" gradientUnits="userSpaceOnUse">
            <stop stop-color="#CA32DB"/>
            <stop offset="1" stop-color="#4433C4"/>
        </linearGradient>
    </defs>
</svg>
