<svg width="125" height="96" viewBox="0 0 125 96" fill="none" xmlns="http://www.w3.org/2000/svg">
    <path d="M11.8899 87.5252C4.72278 79.9128 0.874819 71.3749 0.87482 57.5348C0.874822 33.1807 17.9715 11.3524 42.8336 0.55999L49.0474 10.1486C25.8413 22.7014 21.3045 38.9909 19.4953 49.2614C23.232 47.3269 28.1237 46.652 32.9179 47.0973C45.4708 48.2594 55.3655 58.5647 55.3655 71.375C55.3655 77.8341 52.7996 84.0287 48.2324 88.5959C43.6651 93.1632 37.4705 95.7291 31.0114 95.7291C23.5451 95.7291 16.4058 92.3195 11.8899 87.5252ZM81.4732 87.5252C74.3061 79.9128 70.4582 71.375 70.4582 57.5348C70.4582 33.1807 87.5548 11.3524 112.417 0.559996L118.631 10.1486C95.4247 22.7014 90.8878 38.9909 89.0786 49.2614C92.8153 47.327 97.707 46.652 102.501 47.0973C115.054 48.2594 124.942 58.5647 124.942 71.375C124.942 77.8341 122.376 84.0287 117.809 88.596C113.241 93.1632 107.047 95.7291 100.588 95.7291C93.1214 95.7291 85.9822 92.3195 81.4662 87.5252L81.4732 87.5252Z" fill="#CA32DB" fill-opacity="0.3"/>
</svg>
