<svg width="125" height="96" viewBox="0 0 125 96" fill="none" xmlns="http://www.w3.org/2000/svg">
    <path d="M113.11 8.47475C120.277 16.0872 124.125 24.625 124.125 38.4652C124.125 62.8193 107.029 84.6476 82.1664 95.44L75.9526 85.8514C99.1587 73.2986 103.696 57.0091 105.505 46.7386C101.768 48.673 96.8764 49.348 92.0821 48.9027C79.5292 47.7406 69.6345 37.4353 69.6345 24.625C69.6345 18.1659 72.2004 11.9713 76.7676 7.40405C81.3349 2.83675 87.5295 0.270874 93.9886 0.270874C101.455 0.270874 108.594 3.68046 113.11 8.47475ZM43.5268 8.47475C50.6939 16.0872 54.5419 24.625 54.5419 38.4652C54.5419 62.8193 37.4452 84.6476 12.5831 95.44L6.36931 85.8514C29.5754 73.2986 34.1122 57.0091 35.9214 46.7386C32.1847 48.673 27.293 49.348 22.4987 48.9027C9.9459 47.7406 0.0581055 37.4353 0.0581055 24.625C0.0581055 18.1659 2.62398 11.9713 7.19127 7.40405C11.7586 2.83675 17.9531 0.270874 24.4123 0.270874C31.8786 0.270874 39.0178 3.68046 43.5338 8.47475H43.5268Z" fill="#4433C4" fill-opacity="0.3"/>
</svg>
